<?xml version="1.0" standalone="no"?>
<!DOCTYPE svg PUBLIC "-//W3C//DTD SVG 20010904//EN"
 "http://www.w3.org/TR/2001/REC-SVG-20010904/DTD/svg10.dtd">
<svg version="1.0" xmlns="http://www.w3.org/2000/svg"
 width="1067.000000pt" height="1067.000000pt" viewBox="0 0 1067.000000 1067.000000"
 preserveAspectRatio="xMidYMid meet">
<metadata>
Created by potrace 1.11, written by Peter Selinger 2001-2013
</metadata>
<g transform="translate(0.000000,1067.000000) scale(0.100000,-0.100000)"
fill="#000000" stroke="none">
<path d="M2503 10549 c-143 -13 -208 -20 -223 -24 -8 -2 -35 -7 -60 -10 -25
-4 -104 -22 -176 -40 -415 -106 -793 -320 -1102 -625 -74 -73 -190 -205 -237
-270 -22 -30 -42 -57 -45 -60 -21 -17 -143 -227 -200 -345 -108 -223 -190
-482 -216 -690 -3 -22 -7 -51 -10 -65 -29 -178 -22 -494 17 -710 27 -153 27
-155 60 -270 86 -304 241 -603 444 -855 80 -100 256 -281 325 -335 25 -19 47
-37 50 -40 30 -33 207 -152 322 -218 269 -152 624 -269 903 -297 33 -4 71 -8
85 -11 32 -6 387 -6 420 0 14 2 55 7 92 11 37 3 120 17 185 31 65 14 128 27
139 30 32 6 265 84 299 99 17 8 62 28 100 45 l70 31 20 -27 c110 -151 253
-227 430 -228 88 -1 119 3 180 22 152 47 293 195 336 352 9 33 13 180 13 534
1 442 0 490 -15 493 -15 4 -15 9 -2 46 15 43 21 172 10 217 -3 14 -8 34 -11
46 -30 138 -170 281 -324 333 -342 115 -694 -124 -693 -471 l0 -76 -52 -50
c-280 -268 -609 -403 -982 -403 -71 0 -139 2 -151 5 -12 2 -45 7 -74 11 -96
12 -264 65 -375 119 -294 141 -506 351 -649 641 -84 170 -117 279 -141 474 -9
66 -9 235 -1 287 3 22 8 59 11 84 3 25 17 86 30 135 65 243 182 442 365 625
334 335 796 476 1255 384 106 -21 108 -22 208 -58 185 -67 339 -163 493 -309
145 -135 204 -173 311 -198 60 -13 190 -14 223 -1 14 5 27 9 30 9 14 -1 86 28
128 51 65 36 161 137 194 203 101 201 71 434 -77 596 -311 342 -726 587 -1200
707 -216 54 -532 82 -732 65z"/>
<path d="M7867 10295 c-1 -2 -45 -5 -98 -9 -53 -4 -107 -9 -120 -11 -13 -2
-41 -6 -63 -10 -240 -35 -510 -125 -744 -246 -465 -240 -855 -644 -1077 -1116
-73 -155 -160 -412 -180 -533 -3 -19 -10 -51 -15 -70 -5 -19 -11 -55 -14 -80
-3 -25 -9 -76 -13 -115 -17 -153 -8 -495 17 -630 5 -27 12 -66 15 -85 17 -108
92 -354 150 -490 79 -186 191 -376 318 -540 72 -91 89 -111 202 -228 149 -154
245 -202 415 -204 192 -2 379 112 463 284 40 82 46 103 54 201 11 139 -42 284
-145 394 -164 177 -242 284 -317 438 -101 208 -139 374 -140 610 0 149 9 223
42 349 66 253 186 461 373 646 181 180 395 300 649 364 102 26 242 42 346 40
64 -2 192 -13 215 -19 3 -1 25 -5 50 -9 44 -8 205 -57 245 -75 195 -85 329
-176 467 -315 220 -221 362 -518 395 -824 8 -76 8 -262 -2 -337 -8 -66 -41
-205 -66 -280 -53 -153 -181 -368 -287 -479 -23 -24 -42 -47 -42 -51 0 -4 -27
-36 -60 -72 -33 -36 -60 -71 -60 -76 0 -6 -6 -18 -14 -26 -31 -36 -59 -153
-59 -245 -1 -288 222 -513 513 -518 129 -2 266 52 356 140 66 64 196 211 273
308 38 47 147 216 190 292 161 288 253 579 297 932 9 76 12 406 3 462 -4 29
-10 78 -13 108 -39 376 -227 842 -460 1142 -12 14 -32 41 -46 59 -80 107 -282
308 -403 403 -67 52 -197 139 -302 203 -90 55 -292 145 -431 192 -104 35 -313
86 -394 96 -30 4 -57 8 -60 10 -14 9 -413 27 -423 20z"/>
<path d="M7840 8406 c-108 -33 -155 -61 -241 -146 -120 -119 -172 -245 -168
-414 3 -163 55 -283 170 -397 207 -206 541 -222 764 -36 135 113 209 268 208
442 0 206 -92 373 -266 486 -132 85 -315 111 -467 65z"/>
<path d="M7847 5094 c-1 -1 -38 -5 -82 -9 -189 -15 -483 -76 -555 -114 -9 -5
-31 -12 -50 -16 -19 -4 -41 -11 -50 -16 -8 -5 -44 -20 -80 -35 -200 -81 -471
-251 -645 -404 -49 -43 -199 -193 -242 -242 -294 -333 -521 -823 -579 -1248
-3 -25 -8 -47 -9 -50 -9 -14 -19 -204 -20 -345 0 -198 9 -303 41 -470 32 -170
29 -157 64 -271 224 -726 763 -1312 1458 -1583 147 -57 352 -115 452 -127 19
-2 46 -6 60 -9 28 -5 68 -11 153 -20 65 -7 343 -8 397 -1 19 2 64 7 100 11 36
4 74 9 85 11 11 3 38 7 60 10 81 11 300 71 388 105 123 49 159 65 257 113 468
233 856 624 1095 1105 57 115 120 269 142 344 7 26 20 71 28 100 21 71 52 212
60 267 3 25 8 52 10 60 11 43 18 175 19 340 0 227 -5 289 -39 475 -3 17 -8 45
-11 64 -11 64 -65 247 -106 356 -221 593 -656 1076 -1219 1352 -142 70 -327
140 -444 169 -88 22 -97 24 -130 29 -16 3 -37 8 -45 10 -8 2 -35 7 -60 10 -25
3 -52 8 -60 10 -41 11 -434 27 -443 19z m336 -1108 c15 -3 37 -8 50 -10 99
-18 256 -70 342 -113 345 -173 605 -474 720 -833 15 -47 29 -98 31 -115 3 -16
7 -36 10 -44 19 -56 26 -342 11 -456 -17 -129 -63 -277 -126 -405 -211 -430
-599 -712 -1071 -777 -96 -14 -338 -7 -433 11 -279 54 -523 183 -727 386 -208
208 -339 458 -389 747 -15 82 -18 145 -16 263 3 160 6 183 31 285 40 163 102
308 187 439 71 108 83 123 197 236 205 206 490 349 765 385 28 4 52 9 54 11 6
6 333 -3 364 -10z"/>
<path d="M2737 5024 c-1 -1 -69 -5 -152 -8 -82 -4 -166 -8 -185 -11 -99 -12
-131 -17 -200 -31 -105 -20 -106 -20 -190 -43 -899 -244 -1591 -998 -1754
-1911 -21 -122 -25 -151 -33 -248 -8 -104 -7 -325 1 -402 10 -101 16 -145 21
-170 2 -13 7 -42 11 -65 12 -83 67 -283 111 -404 174 -473 507 -895 933 -1181
49 -33 92 -60 96 -60 4 0 15 -6 23 -14 27 -24 271 -142 375 -180 131 -49 318
-100 441 -120 55 -8 116 -18 135 -22 19 -3 127 -7 240 -9 184 -3 334 7 455 29
104 19 139 27 206 45 355 94 673 258 944 484 108 90 328 320 385 402 253 364
376 640 449 1010 24 125 29 163 37 300 3 61 7 116 9 123 3 6 1 12 -3 12 -5 0
-7 31 -6 69 2 96 -12 163 -52 250 -47 100 -133 186 -235 234 -91 43 -111 48
-215 53 -230 9 -426 -129 -511 -360 -10 -26 -16 -90 -19 -176 -2 -74 -9 -173
-14 -220 -59 -460 -350 -869 -765 -1070 -219 -106 -369 -142 -600 -144 -197
-1 -271 9 -452 64 -70 21 -220 87 -244 107 -8 7 -19 13 -22 13 -4 0 -30 15
-59 34 -194 124 -373 321 -480 526 -55 104 -105 237 -123 325 -30 144 -37 208
-37 326 2 468 230 895 619 1158 73 49 214 123 269 141 21 7 45 17 52 23 6 5
12 7 12 3 0 -3 16 0 36 9 19 8 83 24 142 35 102 20 162 26 365 35 340 17 569
299 507 625 -32 171 -171 328 -339 386 -39 13 -177 34 -184 28z"/>
</g>
</svg>
